<?xml version="1.0" encoding="UTF-8" standalone="no"?>
<!-- Created with Inkscape (http://www.inkscape.org/) -->

<svg
   version="1.1"
   id="svg1"
   width="1024"
   height="1024"
   viewBox="0 0 1024 1024"
   sodipodi:docname="chemfetch_app_icon.svg"
   inkscape:version="1.4.2 (f4327f4, 2025-05-13)"
   xmlns:inkscape="http://www.inkscape.org/namespaces/inkscape"
   xmlns:sodipodi="http://sodipodi.sourceforge.net/DTD/sodipodi-0.dtd"
   xmlns="http://www.w3.org/2000/svg"
   xmlns:svg="http://www.w3.org/2000/svg">
  <defs
     id="defs1" />
  <sodipodi:namedview
     id="namedview1"
     pagecolor="#505050"
     bordercolor="#eeeeee"
     borderopacity="1"
     inkscape:showpageshadow="0"
     inkscape:pageopacity="0"
     inkscape:pagecheckerboard="0"
     inkscape:deskcolor="#505050"
     showgrid="false"
     inkscape:zoom="1.1396484"
     inkscape:cx="511.56127"
     inkscape:cy="512"
     inkscape:window-width="2560"
     inkscape:window-height="1369"
     inkscape:window-x="2552"
     inkscape:window-y="-8"
     inkscape:window-maximized="1"
     inkscape:current-layer="g1" />
  <g
     inkscape:groupmode="layer"
     inkscape:label="Image"
     id="g1">
    <path
       style="fill:#000000"
       d="M 145,593.5 V 378 h 9 9 V 593.5 809 h -9 -9 z m 30.66667,214.83333 C 175.3,807.96667 175,710.99167 175,592.83333 V 378 h 7 7 V 593.5 809 h -6.33333 c -3.48334,0 -6.63334,-0.3 -7,-0.66667 z M 829,593.5 V 378 h 8.5 8.5 V 593.5 809 h -8.5 -8.5 z m 35,0 V 378 h 5.5 5.5 V 593.5 809 H 869.5 864 Z M 210,578.03498 V 378 l 10.25,0 10.25,0 -0.24315,199.75 -0.24314,199.75 -10.00686,0.28498 L 210,778.06997 Z m 31,-0.005 V 378 l 12.75,1.2e-4 12.75,1.2e-4 -0.0196,199.74988 L 266.46071,777.5 253.73036,777.77988 241,778.05975 Z M 276,578 V 378 l 10.75,-2e-5 10.75,-2e-5 -0.25488,200.00002 L 296.99023,778 H 286.49512 276 Z m 45,0 V 378 h 4 4 v 200 200 h -4 -4 z m 21.99754,199.75 c -0.001,-0.1375 -0.11386,-90.1375 -0.25,-200 L 342.5,378 l 5.25,0 5.25,0 v 200 200 h -5 c -2.75,0 -5.00111,-0.1125 -5.00246,-0.25 z M 363,578.02988 V 378 l 12.75,0 12.75,0 -0.24368,199.75 -0.24368,199.75 -12.50632,0.27988 L 363,778.05975 Z m 34.60801,199.14489 c -0.28051,-0.45387 -0.48192,-90.45387 -0.44759,-200 L 397.22284,378 H 409.11142 421 v 200 200 h -11.44098 -11.44099 z m 49.39063,0.57523 c -7.5e-4,-0.1375 -0.11325,-90.13751 -0.25,-200.00001 L 446.5,377.99998 l 4.25,1e-5 L 455,378 v 200 200 h -4 c -2.2,0 -4.00061,-0.1125 -4.00136,-0.25 z M 470,578 V 378 h 10 10 v 200 200 h -10 -10 z m 29,0 V 378 h 5.5 5.5 v 200 200 h -5.5 -5.5 z m 22.99754,199.75 c -0.001,-0.1375 -0.11386,-90.1375 -0.25,-200 L 521.5,378 l 5.25,0 5.25,0 v 200 200 h -5 c -2.75,0 -5.00111,-0.1125 -5.00246,-0.25 z M 541,578 V 378 h 8.5 8.5 v 200 200 h -8.5 -8.5 z m 38,0 V 378 H 591.5 604 V 578 778 H 591.5 579 Z m 38,0 V 378 h 4.5 4.5 v 200 200 h -4.5 -4.5 z m 22,0 V 378 H 653.5 668 V 578 778 H 653.5 639 Z m 37,0 V 378 l 5.75,-2e-5 5.75,-2e-5 -0.25488,200.00002 L 686.99023,778 H 681.49512 676 Z m 31,0.0575 V 378 l 4.25,0 4.25,0 -0.23964,199.75 -0.23963,199.75 -4.01037,0.3075 L 707,778.115 Z M 740,578 V 378 l 11.25,-2e-5 11.25,-2e-5 -0.25488,200.00002 L 761.99023,778 H 750.99512 740 Z m 32,0.0308 V 378 l 12.25,0 12.25,0 -0.24359,199.75 -0.2436,199.75 -12.0064,0.28078 L 772,778.06156 Z M 807,578 V 378 h 5 5 v 200 200 h -5 -5 z M 174.21945,344.60225 c -11.91673,-4.50176 -19.1019,-11.19021 -24.84846,-23.13063 l -3.38255,-7.02839 -1.49422,-7.80958 c -1.88844,-9.86999 -1.89047,-17.36889 -0.007,-27.29568 l 1.48685,-7.83797 3.54537,-7.20467 3.54537,-7.20467 4.86086,-5.29533 c 2.67347,-2.91243 7.27147,-6.74106 10.21778,-8.50806 l 5.35692,-3.21274 6.5,-1.65981 6.5,-1.65981 9.14152,0.47753 9.14152,0.47752 6.35848,2.9924 6.35848,2.9924 5.23412,4.73101 5.23411,4.73101 3.50038,7.17161 c 1.92521,3.94438 3.78987,9.08411 4.14369,11.42161 l 0.64332,4.25 h -9.96952 -9.96952 l -1.25578,-4.25 c -1.69516,-5.73707 -5.22497,-10.17586 -10.59429,-13.3225 l -4.46573,-2.61708 -5.86198,-0.53155 -5.86198,-0.53155 -4.9977,1.65997 -4.9977,1.65997 -4.08062,3.49286 -4.08062,3.49286 -2.46542,5.22351 c -1.35598,2.87293 -3.02267,8.06703 -3.70376,11.54244 l -1.23833,6.31894 0.58496,8.28903 0.58497,8.28903 2.05915,5.85865 c 1.13253,3.22226 3.33174,7.44867 4.88713,9.39204 l 2.82798,3.53338 5.35738,2.91289 5.35738,2.9129 7.06419,0.0312 7.06419,0.0312 3.5,-1.80823 c 7.35941,-3.80216 11.74387,-9.70573 14.07048,-18.94553 L 217.23743,304 H 227.11871 237 v 1.60566 c 0,3.63238 -3.36546,14.26525 -6.20924,19.61754 l -3.04085,5.72321 -5.37231,5.08091 -5.37231,5.08091 -5.75265,2.69588 L 205.5,346.5 l -12.5,0.23742 -12.5,0.23742 z m 176.13352,0.33692 -6.14703,-1.94849 -5.12866,-4.61111 c -6.13007,-5.51146 -9.72636,-11.34411 -11.79474,-19.12929 l -1.52773,-5.75028 -0.0228,-6.5 -0.0228,-6.5 1.72222,-5.9181 c 3.21858,-11.06009 11.05298,-20.59687 20.5178,-24.97624 L 352.5,267.5 l 10,0.0115 10,0.0115 5,2.45653 5,2.45653 4.81183,4.79615 4.81183,4.79614 2.38569,5.23579 c 1.31212,2.87968 2.82458,7.98793 3.361,11.35166 l 0.97532,6.11587 -0.55451,4.13413 L 397.73666,313 H 370.86833 344 v 2.18428 c 0,1.20135 0.95452,4.15604 2.12115,6.56598 l 2.12115,4.38171 3.94717,2.61211 3.94717,2.61211 6.18168,0.0374 6.18168,0.0374 3.84114,-1.87271 3.84113,-1.87271 1.59408,-3.34281 L 379.37042,321 H 388.18521 397 v 1.30366 c 0,0.71701 -1.16028,3.63202 -2.57839,6.47781 l -2.57839,5.17415 -5.01828,4.51187 -5.01829,4.51187 -6.50866,2.01032 -6.50866,2.01032 -6.14467,-0.0562 -6.14466,-0.0562 z m 28.1562,-50.57495 -1.39516,-4.63578 -2.60672,-2.72083 -2.60671,-2.72082 -3.81631,-1.1434 c -5.51435,-1.65213 -8.88286,-1.4193 -13.78268,0.95266 l -4.32986,2.09605 -2.38202,4.15395 c -1.31012,2.28467 -2.68408,5.16645 -3.05326,6.40395 l -0.67123,2.25 h 18.01956 18.01956 z M 631.27118,345.4601 C 619.07421,342.17511 609.83239,332.54565 606.35609,319.5 l -1.33235,-5 v -7 -7 l 1.37119,-5.14981 c 3.05596,-11.47736 9.50979,-19.63791 19.81917,-25.06034 l 5.2859,-2.78024 9.5,-0.005 9.5,-0.005 4.66235,2.29678 c 2.56429,1.26322 6.64708,4.0438 9.07287,6.17907 l 4.41052,3.88229 3.09018,5.82093 3.09017,5.82093 1.08696,5.93366 C 676.51087,300.69717 677,305.53951 677,308.19441 v 4.82708 l -27.0733,-0.10411 c -31.10082,-0.11959 -28.03407,-0.76376 -26.40704,5.54672 l 1.27988,4.96409 3.51334,3.21973 3.51333,3.21973 3.98737,1.19464 3.98737,1.19465 4.3821,-0.65714 c 5.54163,-0.83102 10.45016,-3.79133 12.62544,-7.61435 l 1.69151,-2.9728 8.72525,-0.006 8.72525,-0.006 -0.95308,2.50679 c -1.87799,4.93949 -4.16809,8.67635 -7.74054,12.63063 l -3.62997,4.01795 -4.56345,2.29794 c -8.83345,4.4481 -18.54124,5.49837 -27.79228,3.00679 z m 26.70736,-49.53494 c -0.48502,-1.69117 -1.71619,-4.50342 -2.73592,-6.24945 l -1.85407,-3.1746 -3.94428,-2.29192 -3.94427,-2.29192 -5.76344,0.35615 -5.76344,0.35614 -2.67477,1.99701 c -3.38886,2.53015 -5.82805,5.85867 -7.78501,10.62343 l -1.54018,3.75 h 18.44361 18.44362 z M 760.5,346.02982 c -5.85665,-1.26415 -9.12082,-2.67286 -14.0472,-6.0623 l -4.39588,-3.02444 -3.06894,-4.46056 c -3.82629,-5.56132 -5.79234,-11.05215 -6.99589,-19.53833 l -0.93621,-6.60111 1.01617,-6.42154 1.01617,-6.42154 2.85714,-6.15125 2.85714,-6.15125 3.95475,-3.95475 3.95474,-3.95474 5.89401,-2.89401 5.894,-2.894 10,0.0133 10,0.0133 5.5,2.57689 c 10.155,4.75788 16.04197,12.05322 17.60278,21.81393 L 802.25562,296 h -8.52172 -8.52171 l -2.3561,-4.69803 c -1.29585,-2.58391 -3.54218,-5.55839 -4.99185,-6.60996 l -2.63577,-1.91193 -4.49565,-0.50673 -4.49566,-0.50672 -3.55261,1.17246 -3.55261,1.17247 -3.51217,3.88755 -3.51216,3.88754 -1.11498,4.14073 c -0.61325,2.27741 -1.10699,7.77825 -1.09722,12.2241 l 0.0178,8.08336 2.79341,5.58258 2.79342,5.58258 4.89506,2.42601 4.89507,2.42601 5.5437,-1.16281 5.54371,-1.1628 3.33749,-3.23482 3.33748,-3.23482 1.13203,-3.77839 L 785.31658,316 h 8.453 8.453 l -0.69031,3.75 c -1.10567,6.00632 -4.04876,11.77014 -8.44568,16.54024 l -4.09164,4.4389 -5.75514,2.58275 -5.75514,2.58275 -6.49233,0.49929 -6.49234,0.49929 z m -57.57665,-2.56083 c -5.31627,-1.65926 -7.58296,-3.84898 -9.47454,-9.15279 L 692.08779,330.5 692.04389,306.75 692,283 h -6.5 -6.5 v -7 -7 h 6.5 6.5 v -11 -11 h 9 9 v 11 11 h 7.5 7.5 v 7 7 h -7.5 -7.5 v 21.5 21.5 l 2,2 2,2 h 5.54381 5.54381 l -0.29381,7.25 -0.29381,7.25 -8.5,0.1987 -8.5,0.1987 z M 248,292 v -52 h 9 9 v 19 19 l 3.87966,-3.87966 3.87967,-3.87967 5.24937,-1.74356 5.24938,-1.74356 7.12096,0.46514 7.12096,0.46514 4,2.0665 c 4.63965,2.39697 8.49532,6.29205 11.13584,11.24967 l 1.86416,3.5 0.31685,29.75 0.31684,29.75 H 307.06685 298 l -0.006,-23.75 -0.006,-23.75 -1.0887,-3.9212 -1.0887,-3.92119 -2.75526,-2.75527 -2.75526,-2.75526 -3.74693,-0.70293 -3.74692,-0.70292 -3.76814,1.12896 c -5.05255,1.51378 -8.40034,4.29626 -10.65118,8.85261 L 266.52183,295.5 266.17007,319.75 265.8183,344 H 256.90915 248 Z m 160,14.5 V 269 h 9 9 v 4.70821 4.70821 l 4.25,-4.16088 c 2.3375,-2.28848 5.92305,-4.85717 7.96788,-5.7082 L 441.93576,267 h 5.6661 c 3.11636,0 7.51831,0.55005 9.78212,1.22232 l 4.11602,1.22233 4.63204,4.61209 4.63203,4.6121 2.57026,-3.2212 2.57025,-3.22119 5.24405,-2.61323 L 486.39269,267 h 6.12215 6.12216 l 4.96575,1.47467 4.96576,1.47467 3.37058,3.27533 c 1.85383,1.80143 4.31341,5.30033 5.46575,7.77533 l 2.09516,4.5 0.31774,29.25 0.31774,29.25 H 510.56774 501 v -26.09887 -26.09887 l -1.57727,-3.32386 -1.57728,-3.32385 -3.55022,-1.6847 -3.55023,-1.68469 -4.1225,0.65796 c -2.26738,0.36188 -5.17271,1.3453 -6.45629,2.18538 l -2.3338,1.52741 -1.89424,4.17205 -1.89425,4.17204 -0.022,24.75 L 474,344 h -9.5 -9.5 v -25.53212 -25.53212 l -1.36198,-3.21788 C 452.88892,287.94805 451.26668,285.6 450.03303,284.5 l -2.24301,-2 h -5.32168 -5.32168 l -2.82333,2.06453 c -1.55283,1.1355 -3.72333,3.8355 -4.82333,6 l -2,3.93547 -0.31338,24.75 -0.31338,24.75 H 417.43662 408 Z M 533,292 v -52 h 35.5 35.5 v 9 9 l -25.75,-0.002 -25.75,-0.002 0.30559,13.00175 L 553.11119,284 H 574.80559 596.5 v 8.5 8.5 H 574.75 553 v 21.5 21.5 h -10 -10 z m 279,0 v -52 h 9 9 v 19.13486 19.13486 l 1.90831,-2.42603 c 1.04958,-1.33432 4.31208,-3.7575 7.25,-5.38486 L 844.5,267.5 h 8.52669 8.5267 l 4.86668,2.50448 4.86667,2.50448 2.814,3.49552 2.814,3.49552 1.54263,5.9601 L 880,291.4202 V 317.7101 344 h -8.95265 -8.95265 L 861.79735,318.25 861.5,292.5 860,289.53733 c -0.825,-1.62947 -3.075,-4.03205 -5,-5.33907 l -3.5,-2.37641 -5.25984,0.42217 -5.25984,0.42216 -3.74016,3.02166 -3.74016,3.02167 -1.69562,4.39524 -1.69561,4.39525 -0.0544,23.25 L 830,344 h -9 -9 z"
       id="path1" />
  </g>
</svg>
