<?xml version="1.0" encoding="UTF-8" standalone="no"?>
<!-- Created with Inkscape (http://www.inkscape.org/) -->

<svg
   version="1.1"
   id="svg1"
   width="1024"
   height="1024"
   viewBox="0 0 1024 1024"
   sodipodi:docname="chemfetch_logo.svg"
   inkscape:version="1.4.2 (f4327f4, 2025-05-13)"
   xmlns:inkscape="http://www.inkscape.org/namespaces/inkscape"
   xmlns:sodipodi="http://sodipodi.sourceforge.net/DTD/sodipodi-0.dtd"
   xmlns="http://www.w3.org/2000/svg"
   xmlns:svg="http://www.w3.org/2000/svg">
  <defs
     id="defs1" />
  <sodipodi:namedview
     id="namedview1"
     pagecolor="#505050"
     bordercolor="#eeeeee"
     borderopacity="1"
     inkscape:showpageshadow="0"
     inkscape:pageopacity="0"
     inkscape:pagecheckerboard="0"
     inkscape:deskcolor="#505050"
     inkscape:zoom="1.1396484"
     inkscape:cx="511.56127"
     inkscape:cy="512"
     inkscape:window-width="2560"
     inkscape:window-height="1369"
     inkscape:window-x="2552"
     inkscape:window-y="-8"
     inkscape:window-maximized="1"
     inkscape:current-layer="g1" />
  <g
     inkscape:groupmode="layer"
     inkscape:label="Image"
     id="g1">
    <path
       style="fill:#000000"
       d="m 422.08714,755.44066 -3.41285,-1.48106 -6.98405,-7.20927 c -9.91471,-10.23443 -11.76296,-15.83859 -7.76357,-23.54017 L 405.85334,719.5 440.17667,685.36489 474.5,651.22977 l 3.86858,-1.23157 3.86858,-1.23157 4.15432,0.46825 4.15431,0.46825 1.58132,-2.10157 c 0.86973,-1.15586 3.93816,-5.57761 6.81874,-9.82611 l 5.23742,-7.72454 -5.66228,-8.93188 C 492.4097,611.47886 487.9863,601.1046 484.86284,589.08645 l -1.97168,-7.58645 -0.58804,-12.55814 -0.58804,-12.55813 1.73898,-10.39984 c 8.02642,-48.00148 46.50608,-83.2472 95.99744,-87.92955 l 9.39489,-0.88884 10.34143,0.89796 c 11.81229,1.02568 21.84415,3.38142 33.4355,7.85152 l 8.06173,3.10893 9.40747,6.18917 9.40748,6.18916 7.55041,7.54888 c 9.08766,9.08581 14.75705,17.23337 20.47597,29.42627 l 4.27884,9.12261 2.16467,8.5 2.16468,8.5 0.57099,12.08313 0.571,12.08312 -1.72111,10.29296 c -2.02652,12.11948 -5.26252,22.49469 -10.46128,33.54079 l -3.76514,8 -6.18972,8.1845 c -14.79643,19.56494 -34.28925,32.70779 -57.9335,39.06112 l -9.70581,2.608 -18,0.0273 -18,0.0272 -10,-2.75674 -10,-2.75674 -10.29517,-4.90751 -10.29516,-4.9075 -9.90446,7.71018 -9.90445,7.71018 -0.0504,4.41214 -0.0504,4.41214 -2.42744,4.08786 -2.42744,4.08786 -33.67756,33 -33.67757,33 -3.64499,1.72378 c -4.45257,2.10569 -8.54864,2.17372 -13.05786,0.21688 z M 610.5,647.0304 c 31.80693,-8.15335 56.26485,-33.89539 63.19589,-66.51388 l 1.49092,-7.01652 -0.50999,-13.5 -0.50999,-13.5 -1.63712,-6 c -0.90041,-3.3 -3.64047,-10.05 -6.08901,-15 l -4.45189,-9 -5.27052,-6.47388 c -2.89879,-3.56064 -8.18377,-8.84668 -11.74441,-11.74676 l -6.47388,-5.27288 -9.15475,-4.51979 c -5.03512,-2.48589 -12.68512,-5.50222 -17,-6.70297 l -7.84525,-2.18317 -15,0.0283 -15,0.0283 -8,2.1924 c -4.4,1.20582 -11.60535,3.9773 -16.01188,6.15885 l -8.01189,3.96645 -7.34474,5.85386 -7.34473,5.85386 -5.45378,6.80108 c -6.62042,8.25592 -12.54865,19.77081 -15.56386,30.23096 l -2.24422,7.78546 -0.0125,15 -0.0125,15 1.76236,6.379 c 5.21471,18.8751 13.84321,32.64869 28.10959,44.87106 l 6.12805,5.25007 8.5,4.40571 c 9.23553,4.78696 19.08528,8.08856 28.5,9.5531 l 6,0.93335 9.5,-0.40559 9.5,-0.40559 z M 642.64602,565.54775 640,563.0955 v -2.94242 c 0,-1.61832 -0.90417,-5.86978 -2.00927,-9.44768 l -2.00928,-6.50527 -4.0624,-6.08349 c -6.2838,-9.41006 -16.58077,-17.2066 -26.64155,-20.17211 -2.32237,-0.68454 -5.13487,-2.09463 -6.25,-3.13353 L 597,512.92209 v -3.38962 -3.38961 l 1.56993,-1.56993 c 0.86346,-0.86346 2.64274,-1.83919 3.95396,-2.16828 l 2.38403,-0.59835 6.42136,2.13689 C 635.70869,512.05613 656,537.43852 656,559.82176 v 4.03308 l -2.63486,2.07258 L 650.73028,568 h -2.71912 -2.71911 z M 139,550 v -86 h 5 5 v 86 86 h -5 -5 z m 23,0 v -86 h 8.5 8.5 v 86 86 h -8.5 -8.5 z m 25,0 v -86 h 10 10 v 86 86 h -10 -10 z m 37,0 v -86 h 4.5 4.5 v 86 86 h -4.5 -4.5 z m 20,0 v -86 h 4.5 4.5 v 86 86 h -4.5 -4.5 z m 19.5,1.5e-4 v -85.99999 l 9.75,-8e-5 L 283,464 v 86 86 l -9.75,7e-5 -9.75,7e-5 z M 301,550 v -86 h 4.5 4.5 v 86 86 h -4.5 -4.5 z m 19,0 v -86 h 9.5 9.5 v 86 86 h -9.5 -9.5 z m 29.76101,9e-5 L 350.02203,464 H 354.51101 359 v 86 86 l -4.75,9e-5 -4.75,9e-5 z M 381,550 v -86 h 9.75 9.75 v 86 86 H 390.75 381 Z m 35,0 v -86 h 9.5 9.5 v 86 86 h -9.5 -9.5 z m 33,0 v -86 h 8.5 8.5 v 86 86 h -8.5 -8.5 z m 256,0 v -86 h 9 9 v 86 86 h -9 -9 z m 34,0 v -86 h 4.5 4.5 v 86 86 h -4.5 -4.5 z m 21,0 v -86 h 10 10 v 86 86 h -10 -10 z m 37,0 v -86 h 6.5 6.5 v 86 86 h -6.5 -6.5 z m 23.50659,0.25 0.23462,-85.75 4.12939,-0.3075 L 829,463.885 V 549.9425 636 h -4.36401 -4.36402 z M 839,550 v -86 h 9.5 9.5 v 86 86 h -9.5 -9.5 z m 29.73876,0.25 0.23876,-85.75 h 4.03707 4.03708 l 0.22416,85.75015 L 877.5,636.00029 873,636.00015 868.5,636 Z M 481.02042,493.25 481,464 h 9.5 9.5 v 13.12769 13.12768 l -4.99499,6.73788 c -2.74725,3.70583 -7.01306,10.96087 -9.47959,16.12231 L 481.04084,522.5 Z M 693,507.06321 c 0,-0.51524 -2.025,-3.89461 -4.5,-7.50972 L 684,492.98057 V 478.49028 464 h 5 5 v 22 c 0,12.1 -0.225,22 -0.5,22 -0.275,0 -0.5,-0.42156 -0.5,-0.93679 z m -527.73545,-64.6048 c -16.90554,-4.55287 -26.63866,-14.87137 -31.32999,-33.21426 L 132,401.68007 l 0.0174,-9.09003 0.0174,-9.09004 1.38117,-6.5 c 1.84558,-8.68561 5.3841,-16.36513 10.51656,-22.82373 l 4.23061,-5.32374 4.66847,-2.96782 c 2.56765,-1.63231 7.74337,-3.90432 11.5016,-5.04892 l 6.83313,-2.0811 11.16687,0.43082 11.16686,0.43081 5.67515,2.60225 5.67514,2.60224 4.6455,4.28208 C 215.6355,354.76227 223,368.42525 223,374.15655 V 375 h -8.88265 -8.88265 l -2.6783,-5.47425 -2.6783,-5.47424 -3.93147,-3.3652 c -4.67882,-4.0049 -9.7434,-5.68982 -17.06265,-5.67654 l -5.38398,0.01 -5.00728,2.33177 -5.00728,2.33177 -3.38706,3.85766 c -4.52177,5.15001 -6.78297,10.54629 -8.17724,19.51475 l -1.15735,7.44451 0.60372,6.52004 c 0.81323,8.78283 3.02849,15.84664 6.44974,20.56631 l 2.83697,3.91365 5.41975,2.94677 5.41976,2.94677 6.50313,0.0532 6.50314,0.0532 4.6711,-1.80258 4.67111,-1.80257 3.9466,-4.28156 3.94661,-4.28156 1.20984,-3.66587 L 204.1551,408 h 9.29335 9.29334 l -0.85282,4.56493 c -2.70394,14.47348 -13.90205,25.85922 -29.40437,29.89707 l -5.9048,1.538 -8.0399,-0.0658 -8.0399,-0.0658 z m 173.9217,0.0377 c -10.22509,-2.86285 -17.08537,-9.4925 -21.33584,-20.61857 l -2.05437,-5.37755 -0.50136,-7.5 -0.50135,-7.5 1.6246,-6.90374 c 0.89353,-3.79706 2.83736,-9.13199 4.31963,-11.85541 l 2.69504,-4.95166 4.3866,-3.86125 4.38661,-3.86125 5.43461,-2.03334 L 343.07503,366 H 351 h 7.92497 l 5.46177,2.04351 5.46176,2.0435 4.17105,4.04787 4.17104,4.04786 2.85336,6.15863 2.85335,6.15863 0.80135,6.5 c 0.44074,3.575 0.65896,7.7375 0.48493,9.25 L 384.86716,409 H 358.93358 333 v 2.85078 c 0,6.67618 4.27444,14.10251 9.56105,16.61117 l 3.24121,1.53805 5.84887,-0.004 5.84887,-0.004 3.17586,-1.93647 c 1.74673,-1.06507 4.19385,-3.31338 5.43806,-4.99627 L 368.37612,420 H 376.18806 384 l -0.009,1.25 c -0.0416,5.54441 -9.25337,15.58027 -17.99062,19.60013 l -5.5,2.53045 -8,0.30165 -8,0.30165 z M 367.97804,395.25 c -0.0775,-6.17237 -6.22148,-13.4721 -12.81172,-15.22166 l -4.33368,-1.15049 -3.16632,0.65251 c -1.74148,0.35889 -4.88915,1.76613 -6.99482,3.12722 l -3.82851,2.4747 -1.89953,4.18386 c -1.04475,2.30112 -1.90942,4.97136 -1.9215,5.93386 L 333,397 h 17.5 17.5 z m 256.34614,46.31051 c -8.92324,-2.79013 -14.81394,-8.00556 -18.74137,-16.59299 l -2.53026,-5.53248 -1.13913,-7.65896 -1.13912,-7.65897 1.17109,-6.80855 c 1.48242,-8.61854 4.77265,-15.88382 9.62632,-21.25625 l 3.80138,-4.20768 5.06345,-2.66877 5.06346,-2.66878 11,-0.004 11,-0.004 4.59986,2.26652 c 2.52992,1.24659 6.30402,3.94659 8.38688,6 l 3.78704,3.73348 2.993,6.32615 2.993,6.32615 0.50882,8.92385 L 671.27741,409 H 645.13871 619 l 0.006,1.75 c 0.0221,6.92842 4.34623,14.36851 10.0388,17.27264 l 3.87594,1.97736 5.28984,-0.002 5.28984,-0.002 3.49479,-1.74844 3.49479,-1.74845 1.95064,-3 1.95063,-3 H 662.19542 670 v 1.05422 c 0,2.20469 -5.85055,10.14425 -10.4742,14.21415 l -4.81791,4.2409 -5.03544,1.49536 L 644.637,443 636.5685,442.9331 628.5,442.86621 Z M 653.82222,393.25 c -0.55911,-2.0625 -1.94237,-5.26564 -3.07393,-7.11808 l -2.05736,-3.36808 -4.09547,-1.85996 -4.09546,-1.85996 -3.6849,-0.022 c -8.81406,-0.0525 -15.27793,5.45862 -17.27412,14.72804 l -0.69989,3.25 h 17.99885 17.99885 z m 47.53597,48.79607 c -1.72799,-0.41207 -4.7764,-1.75945 -6.77424,-2.99419 l -3.63244,-2.24497 -1.47575,-2.85379 L 688,431.09932 V 405.54966 380 l -6.25,6.1e-4 -6.25,6.1e-4 0.13887,-6.25061 0.13888,-6.25061 6.11112,-0.29772 L 688,366.90457 V 356.95228 347 h 8.5 8.5 v 10 10 h 9 9 v 6.5 6.5 h -9 -9 v 22.4433 22.44329 l 2.22251,1.55671 2.2225,1.5567 h 6.7775 H 723 v 6.86071 6.86071 l -5.25,0.6306 c -6.5062,0.78148 -12.28388,0.67364 -16.39181,-0.30595 z M 753,442.06487 c -11.50982,-3.51381 -18.93007,-11.9262 -21.99226,-24.93275 l -1.26378,-5.36789 0.46921,-9.74417 0.46922,-9.74418 3.01144,-6.43531 c 1.6563,-3.53942 4.45854,-8.08345 6.2272,-10.09785 l 3.21576,-3.66255 5.60076,-2.7402 5.60076,-2.74019 8.67913,-0.41496 8.67912,-0.41495 5.90172,1.71433 5.90172,1.71432 3.86852,2.84302 C 793.15028,376.29063 799,386.4081 799,392.15893 V 393 h -8.79911 -8.79911 l -1.26486,-3.4979 -1.26486,-3.4979 -3.27691,-2.49942 -3.2769,-2.49942 -4.5053,-0.61752 -4.5053,-0.61752 -4.67892,2.06971 -4.67892,2.06971 -2.41271,5.20758 -2.41271,5.20758 -0.66317,6.19265 -0.66318,6.19265 1.15907,5.58322 1.15908,5.58322 2.1919,3.21973 c 1.20555,1.77086 3.37417,4.09523 4.81916,5.16529 l 2.62725,1.94555 5.94822,0.056 5.94822,0.056 3.11388,-1.83942 3.11387,-1.83941 1.49692,-3.07022 c 0.8233,-1.68862 1.73647,-3.85772 2.02927,-4.82022 l 0.53235,-1.75 h 8.47237 8.47237 l 0.57253,0.92637 c 0.31489,0.50951 -0.40674,3.54369 -1.60362,6.74263 l -2.17614,5.81626 -5.58737,5.52837 -5.58737,5.52837 -5.58789,1.729 -5.58789,1.729 -8.91211,-0.086 C 759.51045,442.86677 754.375,442.48464 753,442.06487 Z M 234,391 v -51 h 9 9 v 18.97766 18.97765 l 4.07679,-4.42279 4.07679,-4.4228 5.04658,-1.6762 5.04658,-1.67621 7.62663,0.45568 7.62663,0.45567 4,2.06835 c 7.32341,3.78685 10.79626,9.19303 12.44912,19.37954 l 1.03577,6.38345 0.008,23.75 L 303,442 h -9.5 -9.5 v -24.96607 -24.96608 l -1.68549,-3.53451 -1.6855,-3.53452 -4.13023,-1.99941 C 267.68466,378.73257 258.0872,382.3396 253.88073,391.5 l -1.83681,4 -0.022,23.25 L 252,442 h -9 -9 z m 164.23783,13.90454 0.26217,-37.09547 8.5,0.008 8.5,0.008 v 4.08887 c 0,4.82326 0.0937,4.87255 2.77722,1.46099 l 2.06505,-2.6253 5.07887,-2.36493 5.07886,-2.36494 7.5,0.0122 7.5,0.0122 4,1.82701 c 4.10136,1.87331 10.5,7.69104 10.5,9.54675 0,0.57091 1.39353,-0.65258 3.09673,-2.71886 1.7032,-2.06627 4.9657,-4.72441 7.25,-5.90696 l 4.15327,-2.1501 8.74075,-0.44276 8.74075,-0.44275 5.60881,2.74413 5.60881,2.74414 2.80592,4.42448 2.80593,4.42449 1.09452,6.28517 1.09451,6.28517 0,24.66808 V 442 h -9 -9 l -0.006,-23.75 -0.006,-23.75 -0.9881,-3.55685 -0.98809,-3.55684 -3.03472,-2.90744 -3.03471,-2.90744 -5.44612,0 h -5.44612 l -2.71371,2.02607 c -1.49253,1.11434 -3.64151,3.26767 -4.77549,4.78518 L 464.5,391.14178 464.2019,416.57089 463.90379,442 H 454.9519 446 l -0.002,-24.75 -0.002,-24.75 -1.74844,-3.42892 c -0.96165,-1.8859 -2.91241,-4.28135 -4.33503,-5.32323 l -2.58657,-1.89432 -3.91343,-0.48917 -3.91342,-0.48917 -4.47712,2.3124 -4.47712,2.31241 -2.02288,3.5 -2.02288,3.5 v 24.74704 24.74704 l -9.26217,0.003 -9.26217,0.003 z M 530,390.5 V 339 h 34.5 34.5 v 8.5 8.5 h -25 -25 v 13.5 13.5 h 20.5 20.5 v 8.47929 8.4793 l -20.25,0.2707 L 549.5,400.5 v 20.75054 20.75053 l -9.75,-5.3e-4 L 530,442 Z m 281.76776,2.2e-4 L 812.03552,339 H 820.51776 829 v 19.45238 19.45238 l 4.75337,-4.75336 4.75336,-4.75337 4.75113,-1.33023 4.75113,-1.33024 7.2455,0.47313 7.24551,0.47314 4,2.05167 c 5.04622,2.58831 6.85177,4.59658 9.71073,10.80104 l 2.28713,4.96346 0.33133,28.75 0.33133,28.75 h -8.51786 -8.51785 L 861.8124,416.75 861.5,391.5 l -2.26576,-3.64354 -2.26577,-3.64354 -3.62498,-1.72016 -3.62498,-1.72017 -4.93375,0.47407 -4.93374,0.47407 -2.61372,1.95142 c -7.34577,5.48441 -8.13633,9.06183 -8.19375,37.07785 L 829,442 l -8.75,2.2e-4 -8.75,2.3e-4 z"
       id="path1" />
  </g>
</svg>
